<mxfile host="app.diagrams.net" modified="2024-07-20T07:45:31.541Z" agent="Mozilla/5.0 (Windows NT 10.0; Win64; x64) AppleWebKit/537.36 (KHTML, like Gecko) Chrome/126.0.0.0 Safari/537.36 Edg/126.0.0.0" version="24.7.2" etag="Zv5sNsJ0RIyTsCaK4SX9" type="github">
  <diagram name="Halaman-1" id="cNJBVRCYN2WFoyGM-8wT">
    <mxGraphModel>
      <root>
        <mxCell id="0" />
        <mxCell id="1" parent="0" />
      </root>
    </mxGraphModel>
  </diagram>
</mxfile>
